<svg width="300" height="270" viewBox="0 0 300 270" fill="none" xmlns="http://www.w3.org/2000/svg">
<g clip-path="url(#clip0_5143_9290)">
<circle cx="150" cy="150" r="150" fill="#2A3334" fill-opacity="0.02"/>
<circle cx="150" cy="149.999" r="112.733" fill="#2A3334" fill-opacity="0.02"/>
<circle cx="150" cy="150" r="78.2609" fill="#2A3334" fill-opacity="0.04"/>
<g clip-path="url(#clip1_5143_9290)">
<path d="M146.647 211.492C146.239 211.492 145.836 211.463 145.44 211.405C142.224 210.933 139.229 208.286 139.782 203.438C140.257 199.267 146.592 194.11 154.778 188.207C154.247 184.527 153.397 180.691 152.436 176.75C144.118 186.807 133.548 195.419 125.601 195.42C125.53 195.42 125.459 195.419 125.388 195.418C123.412 195.379 121.173 194.786 119.253 192.896C115.63 195.583 111.426 196.849 107.336 196.455C104.991 196.232 102.974 195.504 101.332 194.302C96.8319 198.671 93.6819 201.551 93.1687 202.019C92.7168 202.43 92.0111 202.401 91.5959 201.949C91.1818 201.498 91.213 200.797 91.666 200.384C91.7951 200.266 94.9753 197.359 99.6759 192.789C98.811 191.807 98.1042 190.639 97.5677 189.294C92.6378 176.937 102.348 153.4 114.144 140.007C121.983 131.109 130.178 127.183 137.213 128.944C140.768 129.836 142.943 131.757 143.679 134.655C144.936 139.62 141.442 147.165 135.779 155.435C136.615 155.804 137.38 156.285 138.046 156.876C140.79 159.308 141.417 163.125 139.769 167.344C135.498 178.273 126.651 186.854 121.01 191.501C122.222 192.602 123.697 193.172 125.43 193.205C125.487 193.208 125.544 193.208 125.601 193.208C132.835 193.208 143.56 184.352 151.789 174.148C151.601 173.398 151.411 172.646 151.22 171.889C150.256 168.065 149.26 164.112 148.413 160.082C146.866 152.734 150.575 146.416 154.937 143.413C157.904 141.368 160.975 140.974 163.146 142.351C164.934 143.484 166.826 146.244 165.677 152.952C164.703 158.653 160.181 166.874 154.187 174.569C155.225 178.745 156.178 182.822 156.806 186.755C157.936 185.951 159.092 185.134 160.266 184.304C167.268 179.355 174.509 174.238 178.582 169.839C178.999 169.391 179.703 169.363 180.154 169.775C180.606 170.189 180.635 170.891 180.219 171.341C175.988 175.91 168.651 181.096 161.554 186.11C160.104 187.134 158.624 188.18 157.158 189.232C157.685 193.487 157.759 197.562 157.059 201.399C155.823 208.173 150.997 211.493 146.643 211.493L146.647 211.492ZM155.091 190.729C148.312 195.683 142.348 200.58 141.993 203.687C141.582 207.294 143.671 208.906 145.764 209.213C149.358 209.731 153.769 207.041 154.871 201.002C155.459 197.78 155.46 194.338 155.091 190.729ZM102.95 192.726C104.217 193.57 105.751 194.079 107.547 194.25C111.054 194.58 114.685 193.493 117.85 191.174C116.555 189.215 115.527 186.408 115.009 182.442C114.93 181.83 114.863 181.233 114.807 180.649C110.55 185.167 106.432 189.311 102.95 192.726ZM133.818 130.744C128.273 130.744 121.994 134.458 115.819 141.467C103.236 155.753 95.5229 178.159 99.637 188.476C100.061 189.539 100.605 190.459 101.269 191.233C105.145 187.43 109.831 182.706 114.619 177.583C114.244 163.371 121.358 157.948 124.687 156.199C127.605 154.664 130.852 154.202 133.655 154.767C139.207 146.837 142.662 139.699 141.521 135.196C140.994 133.119 139.408 131.777 136.671 131.091C135.746 130.859 134.794 130.745 133.819 130.745L133.818 130.744ZM116.879 178.432C116.936 179.609 117.046 180.85 117.217 182.156C117.643 185.42 118.437 187.967 119.595 189.79C125.054 185.291 133.603 177.011 137.696 166.54C139.007 163.183 138.606 160.337 136.566 158.529C135.969 157.998 135.263 157.585 134.484 157.29C129.493 164.289 123.121 171.697 116.88 178.433L116.879 178.432ZM131.289 156.736C129.476 156.736 127.535 157.207 125.726 158.156C122.965 159.608 117.282 163.948 116.856 175.164C122.335 169.191 127.803 162.806 132.213 156.776C131.91 156.748 131.601 156.735 131.289 156.735V156.736ZM160.227 143.76C159.029 143.76 157.611 144.264 156.205 145.232C152.448 147.818 149.256 153.271 150.593 159.624C151.432 163.613 152.424 167.544 153.381 171.347C153.43 171.539 153.478 171.732 153.527 171.922C158.68 165.111 162.566 157.952 163.485 152.577C164.209 148.341 163.65 145.293 161.952 144.216C161.468 143.91 160.88 143.759 160.227 143.759V143.76Z" fill="#262D34"/>
<path d="M179.938 161.909L181.567 168.595L185.971 163.543L179.938 161.909Z" fill="#117C8F"/>
<path d="M193.085 89.6128L176.649 160.756L186.701 163.056L203.137 91.9134L193.085 89.6128Z" fill="white"/>
<mask id="mask0_5143_9290" style="mask-type:luminance" maskUnits="userSpaceOnUse" x="176" y="89" width="28" height="75">
<path d="M193.085 89.6128L176.649 160.756L186.701 163.056L203.137 91.9134L193.085 89.6128Z" fill="white"/>
</mask>
<g mask="url(#mask0_5143_9290)">
<path d="M196.724 89.3842L180.142 161.161L189.449 163.291L206.031 91.5145L196.724 89.3842Z" fill="#117C8F"/>
</g>
<path d="M186.706 164.169C186.624 164.169 186.541 164.16 186.456 164.141C185.857 164.003 185.483 163.41 185.621 162.812L201.812 92.7509L193.93 90.9461L177.738 161.009C177.601 161.604 177.009 161.979 176.404 161.84C175.805 161.702 175.431 161.108 175.569 160.511L192.01 89.3684C192.076 89.0826 192.254 88.8344 192.505 88.6782C192.756 88.5209 193.056 88.4732 193.345 88.5375L203.395 90.8398C203.994 90.9771 204.368 91.571 204.23 92.1681L187.789 163.31C187.671 163.822 187.212 164.169 186.705 164.169H186.706Z" fill="#262D34"/>
<path d="M198.539 112.454C198.457 112.454 198.373 112.445 198.288 112.426L188.35 110.15C187.751 110.013 187.377 109.419 187.515 108.822C187.653 108.227 188.249 107.855 188.85 107.991L198.787 110.267C199.386 110.404 199.76 110.998 199.622 111.595C199.504 112.107 199.045 112.454 198.538 112.454H198.539Z" fill="#262D34"/>
<path d="M186.706 164.169C186.624 164.169 186.54 164.16 186.456 164.141L176.404 161.84C175.806 161.702 175.432 161.109 175.57 160.511C175.708 159.917 176.304 159.541 176.904 159.681L186.956 161.982C187.554 162.119 187.928 162.713 187.79 163.31C187.672 163.822 187.213 164.169 186.706 164.169Z" fill="#262D34"/>
<path d="M179.511 171.862C179.424 171.862 179.337 171.852 179.25 171.832C178.86 171.738 178.55 171.442 178.44 171.058L175.584 161.064C175.416 160.476 175.758 159.863 176.351 159.696C176.936 159.526 177.558 159.869 177.725 160.459L180.042 168.563L185.892 162.309C186.311 161.862 187.015 161.837 187.465 162.253C187.915 162.67 187.94 163.371 187.521 163.819L180.326 171.511C180.112 171.738 179.817 171.863 179.512 171.863L179.511 171.862Z" fill="#262D34"/>
<path d="M200.083 131.662C200 131.662 199.917 131.653 199.831 131.635C199.232 131.497 198.858 130.903 198.996 130.306L206.35 98.4912C206.626 97.299 206.417 96.0703 205.766 95.0344C205.114 93.9974 204.096 93.274 202.897 93.0003C202.298 92.8629 201.924 92.2691 202.062 91.6719C202.2 91.0769 202.792 90.7036 203.397 90.841C205.174 91.2476 206.686 92.32 207.653 93.8589C208.621 95.3989 208.93 97.2204 208.519 98.9897L201.167 130.805C201.049 131.317 200.589 131.663 200.083 131.663V131.662Z" fill="#262D34"/>
</g>
</g>
<defs>
<clipPath id="clip0_5143_9290">
<rect width="300" height="270" fill="white"/>
</clipPath>
<clipPath id="clip1_5143_9290">
<rect width="117.391" height="122.981" fill="white" transform="translate(91.3047 88.5098)"/>
</clipPath>
</defs>
</svg>
