<svg width="24" height="24" viewBox="0 0 24 24" fill="none" xmlns="http://www.w3.org/2000/svg">
<path fill-rule="evenodd" clip-rule="evenodd" d="M6.75 10.5V6C6.75 5.58579 7.08579 5.25 7.5 5.25H16.5C16.9142 5.25 17.25 5.58579 17.25 6V10.5C17.25 10.9142 16.9142 11.25 16.5 11.25H7.5C7.08579 11.25 6.75 10.9142 6.75 10.5ZM15.75 9.75H8.25V6.75H15.75V9.75Z" fill="#DFE3E8"/>
<path fill-rule="evenodd" clip-rule="evenodd" d="M18.75 2.25C18.75 2.25 19.3713 2.25 19.8107 2.68934C19.8107 2.68934 20.25 3.12868 20.25 3.75V20.25C20.25 20.25 20.25 20.8713 19.8107 21.3107C19.8107 21.3107 19.3713 21.75 18.75 21.75H5.25C5.25 21.75 4.62868 21.75 4.18934 21.3107C4.18934 21.3107 3.75 20.8713 3.75 20.25V3.75C3.75 3.75 3.75 3.12868 4.18934 2.68934C4.18934 2.68934 4.62868 2.25 5.25 2.25H18.75ZM18.75 3.75H5.25V20.25H18.75V3.75Z" fill="#DFE3E8"/>
<path d="M9.375 13.875C9.375 14.4963 8.87128 15 8.25 15C7.62872 15 7.125 14.4963 7.125 13.875C7.125 13.2537 7.62872 12.75 8.25 12.75C8.87128 12.75 9.375 13.2537 9.375 13.875Z" fill="#DFE3E8"/>
<path d="M13.125 13.875C13.125 14.4963 12.6213 15 12 15C11.3787 15 10.875 14.4963 10.875 13.875C10.875 13.2537 11.3787 12.75 12 12.75C12.6213 12.75 13.125 13.2537 13.125 13.875Z" fill="#DFE3E8"/>
<path d="M16.875 13.875C16.875 14.4963 16.3713 15 15.75 15C15.1287 15 14.625 14.4963 14.625 13.875C14.625 13.2537 15.1287 12.75 15.75 12.75C16.3713 12.75 16.875 13.2537 16.875 13.875Z" fill="#DFE3E8"/>
<path d="M9.375 17.625C9.375 18.2463 8.87128 18.75 8.25 18.75C7.62872 18.75 7.125 18.2463 7.125 17.625C7.125 17.0037 7.62872 16.5 8.25 16.5C8.87128 16.5 9.375 17.0037 9.375 17.625Z" fill="#DFE3E8"/>
<path d="M13.125 17.625C13.125 18.2463 12.6213 18.75 12 18.75C11.3787 18.75 10.875 18.2463 10.875 17.625C10.875 17.0037 11.3787 16.5 12 16.5C12.6213 16.5 13.125 17.0037 13.125 17.625Z" fill="#DFE3E8"/>
<path d="M16.875 17.625C16.875 18.2463 16.3713 18.75 15.75 18.75C15.1287 18.75 14.625 18.2463 14.625 17.625C14.625 17.0037 15.1287 16.5 15.75 16.5C16.3713 16.5 16.875 17.0037 16.875 17.625Z" fill="#DFE3E8"/>
</svg>
