<svg width="20" height="21" viewBox="0 0 20 21" fill="none" xmlns="http://www.w3.org/2000/svg">
<path d="M16.3828 10.0546C16.4991 10.1742 16.5636 10.3348 16.5621 10.5016C16.5606 10.6683 16.4934 10.8278 16.375 10.9453L9.96873 17.3437C9.14822 18.1642 8.03536 18.6252 6.87498 18.6252C5.7146 18.6252 4.60174 18.1642 3.78123 17.3437C2.96072 16.5232 2.49976 15.4103 2.49976 14.2499C2.49976 13.0896 2.96072 11.9767 3.78123 11.1562L11.539 3.29682C11.8261 2.99418 12.1708 2.75206 12.5529 2.58473C12.9349 2.41741 13.3467 2.32826 13.7637 2.32256C14.1808 2.31685 14.5948 2.3947 14.9813 2.55151C15.3678 2.70832 15.719 2.94092 16.0142 3.2356C16.3094 3.53028 16.5426 3.88108 16.7001 4.26732C16.8576 4.65355 16.9362 5.0674 16.9312 5.48449C16.9263 5.90157 16.8379 6.31343 16.6712 6.69581C16.5046 7.07818 16.2631 7.42332 15.9609 7.71089L8.2031 15.5703C8.0297 15.7463 7.82293 15.8861 7.59489 15.9813C7.36685 16.0766 7.12211 16.1254 6.87498 16.1249C6.50347 16.1259 6.14006 16.0164 5.83087 15.8104C5.52168 15.6045 5.28065 15.3113 5.13835 14.9681C4.99606 14.6249 4.95892 14.2472 5.03165 13.8829C5.10438 13.5186 5.2837 13.1841 5.54685 12.9218L12.0547 6.31245C12.111 6.24928 12.1795 6.19821 12.2562 6.16233C12.3328 6.12645 12.4159 6.1065 12.5005 6.10371C12.5851 6.10091 12.6694 6.11532 12.7482 6.14605C12.8271 6.17679 12.8988 6.22322 12.9592 6.28253C13.0196 6.34184 13.0673 6.41278 13.0994 6.49107C13.1315 6.56936 13.1474 6.65335 13.1461 6.73797C13.1448 6.82258 13.1263 6.90605 13.0918 6.98331C13.0573 7.06058 13.0074 7.13003 12.9453 7.18745L6.43748 13.8046C6.37824 13.8627 6.33115 13.932 6.29896 14.0084C6.26676 14.0849 6.25012 14.167 6.24998 14.2499C6.25227 14.3729 6.29034 14.4925 6.35954 14.5942C6.42873 14.6959 6.52605 14.7752 6.63959 14.8224C6.75314 14.8697 6.87799 14.8828 6.99888 14.8602C7.11977 14.8376 7.23146 14.7803 7.32029 14.6953L15.0703 6.82807C15.2464 6.65467 15.3861 6.4479 15.4814 6.21986C15.5766 5.99182 15.6254 5.74708 15.625 5.49995C15.6259 5.12844 15.5164 4.76503 15.3105 4.45584C15.1045 4.14665 14.8113 3.90562 14.4681 3.76332C14.125 3.62103 13.7472 3.58389 13.3829 3.65662C13.0186 3.72935 12.6841 3.90867 12.4219 4.17182L4.67185 12.039C4.36921 12.326 4.12709 12.6708 3.95976 13.0528C3.79244 13.4349 3.70329 13.8466 3.69759 14.2637C3.69188 14.6808 3.76973 15.0948 3.92654 15.4813C4.08335 15.8678 4.31595 16.219 4.61063 16.5142C4.90531 16.8094 5.25611 17.0426 5.64235 17.2001C6.02858 17.3576 6.44243 17.4362 6.85952 17.4312C7.2766 17.4262 7.68846 17.3378 8.07084 17.1712C8.45321 17.0045 8.79835 16.763 9.08592 16.4609L15.4922 10.0546C15.6107 9.93727 15.7707 9.87143 15.9375 9.87143C16.1043 9.87143 16.2643 9.93727 16.3828 10.0546Z" fill="#A1A7AE"/>
</svg>
