<svg width="24" height="24" viewBox="0 0 24 24" fill="none" xmlns="http://www.w3.org/2000/svg">
<path fill-rule="evenodd" clip-rule="evenodd" d="M17.625 13.125C17.625 13.125 18.8676 13.125 19.7463 14.0037C19.7463 14.0037 20.625 14.8824 20.625 16.125C20.625 16.125 20.625 17.3676 19.7463 18.2463C19.7463 18.2463 18.8676 19.125 17.625 19.125C17.625 19.125 16.3824 19.125 15.5037 18.2463C15.5037 18.2463 14.625 17.3676 14.625 16.125C14.625 16.125 14.625 14.8824 15.5037 14.0037C15.5037 14.0037 16.3824 13.125 17.625 13.125ZM17.625 14.625C17.625 14.625 17.0037 14.625 16.5643 15.0643C16.5643 15.0643 16.125 15.5037 16.125 16.125C16.125 16.125 16.125 16.7463 16.5643 17.1857C16.5643 17.1857 17.0037 17.625 17.625 17.625C17.625 17.625 18.2463 17.625 18.6857 17.1857C18.6857 17.1857 19.125 16.7463 19.125 16.125C19.125 16.125 19.125 15.5037 18.6857 15.0643C18.6857 15.0643 18.2463 14.625 17.625 14.625Z" fill="#DFE3E8"/>
<path d="M19.0046 19.5918C19.6129 20.0639 19.8043 20.8096 19.8043 20.8096L19.8045 20.8103C19.8895 21.1422 20.1887 21.375 20.5312 21.375L20.5463 21.3749C20.604 21.3737 20.6614 21.3659 20.7173 21.3516C21.0491 21.2666 21.2812 20.9676 21.2812 20.625L21.2811 20.6099C21.2799 20.5522 21.2721 20.4949 21.2578 20.439C20.9392 19.1945 19.9244 18.4068 19.9244 18.4068C18.9096 17.6191 17.625 17.6191 17.625 17.6191C16.3404 17.6191 15.3256 18.4068 15.3256 18.4068C14.3108 19.1945 13.9922 20.439 13.9922 20.439C13.9766 20.4998 13.9688 20.5623 13.9688 20.625C13.9688 20.6357 13.969 20.6464 13.9694 20.657C13.9747 20.7805 14.0104 20.9009 14.0735 21.0072C14.1748 21.1784 14.34 21.3022 14.5327 21.3516C14.5935 21.3671 14.656 21.375 14.7188 21.375C14.7294 21.375 14.7401 21.3748 14.7507 21.3743C14.8743 21.3691 14.9946 21.3333 15.101 21.2703C15.2721 21.169 15.396 21.0037 15.4453 20.8111C15.6365 20.0644 16.2454 19.5918 16.2454 19.5918C16.8542 19.1191 17.625 19.1191 17.625 19.1191C18.3958 19.1191 19.0046 19.5918 19.0046 19.5918Z" fill="#DFE3E8"/>
<path d="M20.25 8.25V11.25C20.25 11.6642 20.5858 12 21 12C21.4142 12 21.75 11.6642 21.75 11.25V8.25C21.75 7.62868 21.3107 7.18934 21.3107 7.18934C20.8713 6.75 20.25 6.75 20.25 6.75H12.2531L9.64618 4.79948C9.24619 4.50205 8.74996 4.50001 8.74996 4.50001L3.75 4.5C3.12868 4.5 2.68934 4.93934 2.68934 4.93934C2.25 5.37868 2.25 6 2.25 6V18.75C2.25 19.3713 2.68934 19.8107 2.68934 19.8107C3.12868 20.25 3.75 20.25 3.75 20.25H11.25C11.6642 20.25 12 19.9142 12 19.5C12 19.0858 11.6642 18.75 11.25 18.75H3.75V6L8.74379 5.99999C8.74687 6.00001 8.74757 6.00052 8.74757 6.00052L11.3556 7.95185C11.7538 8.24795 12.2531 8.25 12.2531 8.25H20.25Z" fill="#DFE3E8"/>
</svg>
