<svg width="28" height="28" viewBox="0 0 28 28" fill="none" xmlns="http://www.w3.org/2000/svg">
<path fill-rule="evenodd" clip-rule="evenodd" d="M20.1872 7.81292C19.76 7.38578 19.0675 7.38578 18.6404 7.81292L14 12.4533L9.35961 7.81292C8.93248 7.38578 8.23995 7.38578 7.81282 7.81292C7.38568 8.24005 7.38568 8.93258 7.81282 9.35971L12.4532 14.0001L7.81282 18.6405C7.38568 19.0676 7.38568 19.7602 7.81282 20.1873C8.23995 20.6144 8.93248 20.6144 9.35961 20.1873L14 15.5469L18.6404 20.1873C19.0675 20.6144 19.76 20.6144 20.1872 20.1873C20.6143 19.7601 20.6143 19.0676 20.1872 18.6405L15.5468 14.0001L20.1872 9.35971C20.6143 8.93258 20.6143 8.24005 20.1872 7.81292Z" fill="#F5F7F9"/>
</svg>
