<svg width="24" height="24" viewBox="0 0 24 24" fill="none" xmlns="http://www.w3.org/2000/svg">
<path fill-rule="evenodd" clip-rule="evenodd" d="M21.75 16.626L21.75 16.6282C21.75 16.6282 21.7473 17.0321 21.543 17.3808C21.543 17.3808 21.3383 17.7304 20.986 17.9304L12.7333 22.5725C12.7333 22.5725 12.3969 22.7668 12 22.7668C12 22.7668 11.6031 22.7668 11.2594 22.5684L3.01668 17.9319C3.01668 17.9319 2.66171 17.7304 2.45695 17.3808C2.45695 17.3808 2.25219 17.0312 2.25001 16.626L2.25 7.37824C2.25 7.37824 2.25219 6.96907 2.45695 6.61948C2.45695 6.61948 2.66171 6.26988 3.01402 6.06982L11.2667 1.42769C11.2667 1.42769 11.6031 1.2334 12 1.2334C12 1.2334 12.3969 1.2334 12.7406 1.43185L20.9833 6.06831C20.9833 6.06831 21.3383 6.26988 21.543 6.61948C21.543 6.61948 21.7478 6.96907 21.75 7.37422L21.75 16.622L21.75 16.626ZM20.25 7.38227L20.25 16.618C20.25 16.618 20.2499 16.6207 20.2487 16.6227C20.2487 16.6227 20.2483 16.6234 20.2475 16.6242C20.2469 16.6249 20.2462 16.6255 20.2453 16.6261L12 21.264L3.75218 16.6246C3.75218 16.6246 3.75234 16.6245 3.75127 16.6227C3.75127 16.6227 3.75 16.6205 3.74999 16.618L3.75 7.37824C3.75 7.37824 3.75047 7.37896 3.75127 7.37758C3.75127 7.37758 3.75255 7.37541 3.75473 7.37417L12 2.73619L20.2478 7.37565C20.2479 7.37593 20.2483 7.3768 20.2487 7.37758C20.2487 7.37758 20.25 7.37976 20.25 7.38227Z" fill="#DFE3E8"/>
<path d="M7.86222 3.74961C7.75129 3.68843 7.62668 3.65634 7.5 3.65634L7.49038 3.6564C7.42315 3.65727 7.35634 3.66717 7.29175 3.68583C7.10066 3.74107 6.93933 3.86995 6.84327 4.04412C6.78209 4.15505 6.75 4.27966 6.75 4.40634L6.75006 4.41596C6.75092 4.48319 6.76082 4.55 6.77949 4.61459C6.83472 4.80569 6.96361 4.96701 7.13778 5.06307L15.8438 9.86482V14.297C15.8438 14.7112 16.1795 15.047 16.5938 15.047C17.008 15.047 17.3438 14.7112 17.3438 14.297V9.42197C17.3438 9.14877 17.1952 8.89718 16.956 8.76523L7.86222 3.74961Z" fill="#DFE3E8"/>
<path d="M12.0808 11.1395L3.46825 6.3387C3.3566 6.27647 3.23091 6.2438 3.10309 6.2438L3.09683 6.24383C3.0296 6.24439 2.96274 6.25399 2.89807 6.27237C2.70673 6.32675 2.54483 6.4549 2.44799 6.62864C2.38575 6.74029 2.35309 6.86599 2.35309 6.9938L2.35311 7.00006C2.35368 7.0673 2.36327 7.13415 2.38165 7.19882C2.43603 7.39016 2.56418 7.55206 2.73793 7.64891L11.7192 12.6552C11.9481 12.7827 12.2269 12.7816 12.4548 12.6522L21.2673 7.64592C21.4403 7.54767 21.5671 7.38474 21.6199 7.19297C21.6378 7.12809 21.6468 7.0611 21.6468 6.9938L21.6466 6.9754C21.6436 6.85179 21.61 6.73085 21.549 6.62335C21.4157 6.38874 21.1667 6.2438 20.8968 6.2438C20.887 6.2438 20.8771 6.244 20.8673 6.24439C20.7475 6.24911 20.6306 6.28248 20.5264 6.34169L12.0808 11.1395Z" fill="#DFE3E8"/>
<path d="M11.25 22.0063L11.25 22.0126C11.25 22.0563 11.2538 22.0998 11.2614 22.1428C11.3242 22.4989 11.6321 22.7595 11.9937 22.7626C12.0057 22.7627 12.0177 22.7625 12.0297 22.762C12.216 22.7546 12.3929 22.6781 12.5258 22.5474C12.6677 22.4079 12.7483 22.2178 12.75 22.0189L12.8343 12.0066L12.8344 12.0001C12.8344 11.9902 12.8342 11.9803 12.8338 11.9704C12.8264 11.7841 12.7499 11.6072 12.6192 11.4742C12.4797 11.3324 12.2896 11.2518 12.0907 11.2501L12.0844 11.2501C12.0745 11.2501 12.0646 11.2503 12.0547 11.2507C11.8684 11.2581 11.6915 11.3346 11.5585 11.4653C11.4167 11.6048 11.3361 11.7949 11.3344 11.9938L11.25 22.0063Z" fill="#DFE3E8"/>
</svg>
