<svg width="24" height="24" viewBox="0 0 24 24" fill="none" xmlns="http://www.w3.org/2000/svg">
<path d="M16.4999 3H3.74992C3.3357 3 2.99992 3.33579 2.99992 3.75C2.99992 4.16421 3.3357 4.5 3.74992 4.5H16.4999C16.8012 4.49874 17.0769 4.61226 17.0769 4.61226C17.3525 4.72577 17.5633 4.93658 17.5633 4.93658C17.7742 5.14738 17.8877 5.42306 17.8877 5.42306C18.0012 5.69873 17.9999 5.99686 17.9999 5.99686L17.9999 16.5C17.9999 16.9142 18.3357 17.25 18.7499 17.25C19.1641 17.25 19.4999 16.9142 19.4999 16.5L19.4999 6.00315C19.5024 5.40502 19.2747 4.85194 19.2747 4.85194C19.0469 4.29886 18.624 3.87592 18.624 3.87592C18.2011 3.45297 17.648 3.22524 17.648 3.22524C17.0949 2.9975 16.4999 3 16.4999 3Z" fill="#DFE3E8"/>
<path d="M9.74992 10.5H15.7499C16.1641 10.5 16.4999 10.1642 16.4999 9.74997C16.4999 9.33576 16.1641 8.99997 15.7499 8.99997H9.74992C9.3357 8.99997 8.99992 9.33576 8.99992 9.74997C8.99992 10.1642 9.3357 10.5 9.74992 10.5Z" fill="#DFE3E8"/>
<path d="M9.74992 13.5H15.7499C16.1641 13.5 16.4999 13.1642 16.4999 12.75C16.4999 12.3358 16.1641 12 15.7499 12H9.74992C9.3357 12 8.99992 12.3358 8.99992 12.75C8.99992 13.1642 9.3357 13.5 9.74992 13.5Z" fill="#DFE3E8"/>
<path fill-rule="evenodd" clip-rule="evenodd" d="M7.8938 20.9776C7.8938 20.9776 8.05585 20.997 8.21579 20.9992C8.22716 20.9998 8.23854 21 8.24992 21H18.7499C18.7499 21 19.637 21.0004 20.3819 20.518C20.3819 20.518 21.1268 20.0355 21.4893 19.2254C21.4893 19.2254 21.8518 18.4153 21.7153 17.5384C21.7153 17.5384 21.5787 16.6615 20.9871 16C20.8448 15.8409 20.6415 15.75 20.428 15.75H9.92804C9.51383 15.75 9.17804 16.0858 9.17804 16.5C9.17804 16.6843 9.2459 16.8622 9.36867 16.9996C9.36867 16.9996 9.61518 17.2756 9.70503 17.6346C9.70503 17.6346 9.79488 17.9936 9.70746 18.3532C9.70746 18.3532 9.62003 18.7128 9.37538 18.9904C9.37538 18.9904 9.13074 19.2681 8.78502 19.4001C8.78502 19.4001 8.43931 19.5321 8.07186 19.4882C8.07186 19.4882 7.70441 19.4443 7.39956 19.2345C7.39956 19.2345 7.09471 19.0247 6.92241 18.6972C6.92241 18.6972 6.75012 18.3697 6.74992 17.9996V6.00001C6.74992 6.00001 6.74952 5.25948 6.40493 4.60447C6.40493 4.60447 6.06034 3.94945 5.45063 3.52986C5.45063 3.52986 4.84093 3.11028 4.10603 3.02242C4.10603 3.02242 3.37114 2.93457 2.67971 3.1986C2.67971 3.1986 1.98828 3.46263 1.49899 4.01796C1.49899 4.01796 1.0097 4.57328 0.834842 5.29246C0.834842 5.29246 0.659986 6.01164 0.83969 6.72962C0.83969 6.72962 1.01939 7.4476 1.51242 7.99961C1.65471 8.15893 1.85818 8.25001 2.07179 8.25001C2.08356 8.25001 2.09533 8.24973 2.10709 8.24918C2.27905 8.24108 2.44299 8.17406 2.57139 8.05939C2.73071 7.91709 2.82179 7.71362 2.82179 7.50001C2.82179 7.48824 2.82152 7.47647 2.82096 7.46472C2.81286 7.29275 2.74585 7.12881 2.63117 7.00041C2.63117 7.00041 2.38466 6.7244 2.2948 6.36541C2.2948 6.36541 2.20495 6.00642 2.29238 5.64684C2.29238 5.64684 2.37981 5.28725 2.62445 5.00958C2.62445 5.00958 2.8691 4.73192 3.21481 4.59991C3.21481 4.59991 3.56053 4.46789 3.92798 4.51182C3.92798 4.51182 4.29542 4.55575 4.60028 4.76554C4.60028 4.76554 4.90513 4.97533 5.07742 5.30284C5.07742 5.30284 5.24972 5.63035 5.24992 6.00001V18.0004C5.24992 18.0004 5.25031 18.7405 5.5949 19.3956C5.5949 19.3956 5.9395 20.0506 6.5492 20.4702C6.5492 20.4702 7.15891 20.8897 7.8938 20.9776ZM18.7499 19.5H10.8487C10.8487 19.5 11.0617 19.1324 11.165 18.7076C11.165 18.7076 11.3399 17.9884 11.1601 17.2704L11.155 17.25H20.0513C20.0513 17.25 20.1892 17.4874 20.2331 17.7692C20.2331 17.7692 20.3014 18.2077 20.1202 18.6127C20.1202 18.6127 19.9389 19.0177 19.5665 19.259C19.5665 19.259 19.194 19.5002 18.7499 19.5Z" fill="#DFE3E8"/>
</svg>
