<svg width="24" height="24" viewBox="0 0 24 24" fill="none" xmlns="http://www.w3.org/2000/svg">
<path fill-rule="evenodd" clip-rule="evenodd" d="M11.3594 1.6921C11.3594 1.6921 11.7273 1.62024 12.0855 1.7297C12.0855 1.7297 12.4441 1.83927 12.7089 2.10468L22.4959 11.8916C22.4959 11.8916 22.705 12.0959 22.8217 12.3733C22.8217 12.3733 22.9385 12.6507 22.9385 12.9516C22.9385 12.9516 22.9385 13.2526 22.8217 13.53C22.8217 13.53 22.705 13.8074 22.4897 14.0177L14.0115 22.496C14.0115 22.496 13.8072 22.7051 13.5298 22.8219C13.5298 22.8219 13.2524 22.9387 12.9515 22.9387C12.9515 22.9387 12.6505 22.9387 12.3731 22.8219C12.3731 22.8219 12.0957 22.7051 11.8854 22.4899L2.10396 12.7085C2.10396 12.7085 1.83911 12.4442 1.72954 12.0856C1.72954 12.0856 1.61997 11.7271 1.69202 11.3591L3.20191 3.79084C3.2612 3.49366 3.4935 3.26136 3.79068 3.20208L11.3563 1.6927L11.3594 1.6921ZM4.57499 4.57516L11.6472 3.16423L21.4346 12.9517L12.9514 21.4348L3.16406 11.6473L4.57499 4.57516Z" fill="#DFE3E8"/>
<path d="M8.99994 7.8751C8.99994 8.49637 8.49626 9.0001 7.87494 9.0001C7.25362 9.0001 6.74994 8.49637 6.74994 7.8751C6.74994 7.25382 7.25362 6.7501 7.87494 6.7501C8.49626 6.7501 8.99994 7.25382 8.99994 7.8751Z" fill="#DFE3E8"/>
</svg>
