<svg width="20" height="20" viewBox="0 0 20 20" fill="none" xmlns="http://www.w3.org/2000/svg">
<path d="M2.05829 7.05782C1.94108 7.17503 1.875 7.33424 1.875 7.5C1.875 7.51001 1.87524 7.52002 1.87572 7.53002C1.88319 7.68522 1.94819 7.83207 2.05806 7.94194C2.17527 8.05915 2.33424 8.125 2.5 8.125C2.66576 8.125 2.82473 8.05915 2.94194 7.94194L6.25 4.63388L9.55806 7.94194C9.67527 8.05915 9.83424 8.125 10 8.125C10.1658 8.125 10.3247 8.05915 10.4419 7.94194C10.5592 7.82473 10.625 7.66576 10.625 7.5C10.625 7.33424 10.5592 7.17527 10.4419 7.05806L6.69194 3.30806C6.57473 3.19085 6.41576 3.125 6.25 3.125C6.08424 3.125 5.92527 3.19085 5.80806 3.30806L2.05829 7.05782Z" fill="#0F65D3"/>
<path d="M6.875 14.375V3.75C6.875 3.40482 6.59518 3.125 6.25 3.125C5.90482 3.125 5.625 3.40482 5.625 3.75V15C5.625 15.3452 5.90482 15.625 6.25 15.625H17.5C17.8452 15.625 18.125 15.3452 18.125 15C18.125 14.6548 17.8452 14.375 17.5 14.375H6.875Z" fill="#0F65D3"/>
</svg>
