<svg width="20" height="21" viewBox="0 0 20 21" fill="none" xmlns="http://www.w3.org/2000/svg">
<path d="M16.875 3H12.1875C11.8423 3 11.5625 3.27982 11.5625 3.625C11.5625 3.97018 11.8423 4.25 12.1875 4.25H16.25V8.3125C16.25 8.65768 16.5298 8.9375 16.875 8.9375C17.2202 8.9375 17.5 8.65768 17.5 8.3125V3.625C17.5 3.27982 17.2202 3 16.875 3Z" fill="#5D6772"/>
<path d="M17.3167 4.06718C17.4339 3.94997 17.5 3.79076 17.5 3.625C17.5 3.45924 17.4342 3.30027 17.3169 3.18306L17.3115 3.17773C17.1948 3.064 17.038 3 16.875 3C16.7092 3 16.5503 3.06585 16.4331 3.18306L10.8083 8.80782C10.6911 8.92503 10.625 9.08424 10.625 9.25C10.625 9.41576 10.6908 9.57473 10.8081 9.69194C10.9253 9.80915 11.0842 9.875 11.25 9.875C11.4158 9.875 11.5747 9.80915 11.6919 9.69194L17.3167 4.06718Z" fill="#5D6772"/>
<path d="M3.75 6.75H8.75C9.09518 6.75 9.375 6.47018 9.375 6.125C9.375 5.77982 9.09518 5.5 8.75 5.5H3.75C3.23223 5.5 2.86612 5.86612 2.86612 5.86612C2.5 6.23223 2.5 6.75 2.5 6.75V16.75C2.5 17.2678 2.86612 17.6339 2.86612 17.6339C3.23223 18 3.75 18 3.75 18H13.75C14.2678 18 14.6339 17.6339 14.6339 17.6339C15 17.2678 15 16.75 15 16.75V11.75C15 11.4048 14.7202 11.125 14.375 11.125C14.0298 11.125 13.75 11.4048 13.75 11.75V16.75H3.75V6.75Z" fill="#5D6772"/>
</svg>
