<svg width="24" height="24" viewBox="0 0 24 24" fill="none" xmlns="http://www.w3.org/2000/svg">
<path fill-rule="evenodd" clip-rule="evenodd" d="M2.25 18V5.25C2.25 4.83579 2.58579 4.5 3 4.5H21C21.4142 4.5 21.75 4.83579 21.75 5.25V18C21.75 18 21.75 18.6213 21.3107 19.0607C21.3107 19.0607 20.8713 19.5 20.25 19.5H3.75C3.75 19.5 3.12868 19.5 2.68934 19.0607C2.68934 19.0607 2.25 18.6213 2.25 18ZM3.75 18H20.25V6H3.75V18Z" fill="#DFE3E8"/>
<path d="M3 10.5H21C21.4142 10.5 21.75 10.1642 21.75 9.75C21.75 9.33579 21.4142 9 21 9H3C2.58579 9 2.25 9.33579 2.25 9.75C2.25 10.1642 2.58579 10.5 3 10.5Z" fill="#DFE3E8"/>
<path d="M3 15H21C21.4142 15 21.75 14.6642 21.75 14.25C21.75 13.8358 21.4142 13.5 21 13.5H3C2.58579 13.5 2.25 13.8358 2.25 14.25C2.25 14.6642 2.58579 15 3 15Z" fill="#DFE3E8"/>
<path d="M7.5 9.75V18.75C7.5 19.1642 7.83579 19.5 8.25 19.5C8.66421 19.5 9 19.1642 9 18.75V9.75C9 9.33579 8.66421 9 8.25 9C7.83579 9 7.5 9.33579 7.5 9.75Z" fill="#DFE3E8"/>
</svg>
