<svg width="32" height="32" viewBox="0 0 32 32" fill="none" xmlns="http://www.w3.org/2000/svg">
<g id="Image">
<g id="Vector">
<path fill-rule="evenodd" clip-rule="evenodd" d="M3 7C3 7 3 6.17157 3.58579 5.58579C3.58579 5.58579 4.17157 5 5 5H27C27 5 27.8284 5 28.4142 5.58579C28.4142 5.58579 29 6.17157 29 7V25C29 25 29 25.8284 28.4142 26.4142C28.4142 26.4142 27.8284 27 27 27H5C5 27 4.17157 27 3.58579 26.4142C3.58579 26.4142 3 25.8284 3 25V7ZM5 7V25H27V7H5Z" fill="#CDD1D6"/>
<path d="M22.0054 18.4195L27.2929 23.707C27.4804 23.8945 27.7348 23.9999 28 23.9999C28.2652 23.9999 28.5196 23.8945 28.7071 23.707C28.8946 23.5195 29 23.2651 29 22.9999C29 22.7347 28.8946 22.4803 28.7071 22.2928L23.4196 17.0053C23.1431 16.7244 22.7724 16.5692 22.7724 16.5692C22.4018 16.4141 22 16.4141 22 16.4141C21.5982 16.4141 21.2276 16.5692 21.2276 16.5692C20.8569 16.7244 20.575 17.0107 20.575 17.0107L18.0054 19.5803L18 19.5857L12.4196 14.0053C12.1431 13.7244 11.7724 13.5692 11.7724 13.5692C11.4018 13.4141 11 13.4141 11 13.4141C10.5982 13.4141 10.2276 13.5692 10.2276 13.5692C9.85694 13.7244 9.575 14.0107 9.575 14.0107L3.29327 20.2924C3.10573 20.4799 3 20.7347 3 20.9999C3 21.0159 3.00038 21.0319 3.00115 21.0479C3.0131 21.2962 3.1171 21.5312 3.29289 21.707C3.48043 21.8945 3.73478 21.9999 4 21.9999C4.26522 21.9999 4.51957 21.8945 4.70711 21.707L11 15.4141L11.0054 15.4195L16.575 20.9891C16.8569 21.2753 17.2276 21.4305 17.2276 21.4305C17.5982 21.5857 18 21.5857 18 21.5857C18.4018 21.5857 18.7724 21.4305 18.7724 21.4305C19.1431 21.2753 19.4196 20.9945 19.4196 20.9945L22 18.4141L22.0054 18.4195Z" fill="#CDD1D6"/>
<path d="M21 12.5C21 13.3284 20.3284 14 19.5 14C18.6716 14 18 13.3284 18 12.5C18 11.6716 18.6716 11 19.5 11C20.3284 11 21 11.6716 21 12.5Z" fill="#CDD1D6"/>
</g>
</g>
</svg>
