<svg width="24" height="24" viewBox="0 0 24 24" fill="none" xmlns="http://www.w3.org/2000/svg">
<path d="M7.125 10.5H16.875C17.2892 10.5 17.625 10.1642 17.625 9.75C17.625 9.33579 17.2892 9 16.875 9H7.125C6.71079 9 6.375 9.33579 6.375 9.75C6.375 10.1642 6.71079 10.5 7.125 10.5Z" fill="#DFE3E8"/>
<path d="M7.125 13.5H16.875C17.2892 13.5 17.625 13.1642 17.625 12.75C17.625 12.3358 17.2892 12 16.875 12H7.125C6.71079 12 6.375 12.3358 6.375 12.75C6.375 13.1642 6.71079 13.5 7.125 13.5Z" fill="#DFE3E8"/>
<path fill-rule="evenodd" clip-rule="evenodd" d="M3.33541 20.1708L6 18.8385L8.66459 20.1708C8.87574 20.2764 9.12426 20.2764 9.33541 20.1708L12 18.8385L14.6646 20.1708C14.8757 20.2764 15.1243 20.2764 15.3354 20.1708L18 18.8385L20.6646 20.1708C20.7687 20.2229 20.8836 20.25 21 20.25C21.4142 20.25 21.75 19.9142 21.75 19.5V5.25C21.75 5.25 21.75 4.62868 21.3107 4.18934C21.3107 4.18934 20.8713 3.75 20.25 3.75H3.75C3.75 3.75 3.12868 3.75 2.68934 4.18934C2.68934 4.18934 2.25 4.62868 2.25 5.25V19.5C2.25 19.6164 2.27711 19.7313 2.32918 19.8354C2.41814 20.0133 2.57412 20.1486 2.76283 20.2115C2.95153 20.2744 3.1575 20.2598 3.33541 20.1708ZM5.66459 17.3292C5.87574 17.2236 6.12426 17.2236 6.33541 17.3292L9 18.6615L11.6646 17.3292C11.8757 17.2236 12.1243 17.2236 12.3354 17.3292L15 18.6615L17.6646 17.3292C17.8757 17.2236 18.1243 17.2236 18.3354 17.3292L20.25 18.2865V5.25H3.75V18.2865L5.66459 17.3292Z" fill="#DFE3E8"/>
</svg>
