<svg width="24" height="24" viewBox="0 0 24 24" fill="none" xmlns="http://www.w3.org/2000/svg">
<path fill-rule="evenodd" clip-rule="evenodd" d="M19.1765 9.46334L12.3195 16.3203C12.1589 16.4813 11.9408 16.5718 11.7135 16.5718C11.4861 16.5718 11.268 16.4813 11.1075 16.3203L4.25046 9.46334C4.08949 9.30275 3.99902 9.08472 3.99902 8.85734C3.99902 8.62997 4.08949 8.41193 4.25046 8.25134C4.41105 8.09037 4.62908 7.99991 4.85646 7.99991C5.08383 7.99991 5.30187 8.09037 5.46246 8.25134L11.7135 14.5023L17.9645 8.25134C18.1252 8.09062 18.3432 8.00032 18.5705 8.00032C18.7978 8.00032 19.0157 8.09062 19.1765 8.25134C19.3374 8.41194 19.4277 8.63001 19.4275 8.85734C19.4277 9.08468 19.3374 9.30275 19.1765 9.46334Z" fill="black"/>
</svg>
