<svg width="17" height="16" viewBox="0 0 17 16" fill="none" xmlns="http://www.w3.org/2000/svg">
<path fill-rule="evenodd" clip-rule="evenodd" d="M9.83099 5.06677C9.97459 5.06694 10.9829 5.06684 11.2828 5.06677L12.3 5.06713C12.4478 5.067 12.6424 5.06698 12.8265 5.06695C12.9506 5.06694 13.0699 5.06692 13.1668 5.06687L8.81055 11.417C8.72728 11.5344 8.61599 11.6 8.50016 11.6C8.38434 11.6 8.27304 11.5344 8.18978 11.417L3.8335 5.06687L4.12929 5.06682H4.70489L5.20197 5.06687C5.24066 5.06686 5.29387 5.06683 5.35336 5.06679C5.53457 5.06668 5.77402 5.06653 5.83877 5.06682H9.29858C9.34203 5.06662 9.45201 5.06671 9.56307 5.06679C9.67183 5.06687 9.78162 5.06695 9.83099 5.06677Z" fill="black"/>
</svg>
