<svg width="147" height="16" viewBox="0 0 147 16" fill="none" xmlns="http://www.w3.org/2000/svg">
<g clip-path="url(#clip0_7034_17584)">
<path d="M36.9081 2.53564H33.2911L27.6973 15.7724H31.555L32.4993 13.4076H37.6041L38.5692 15.7724H42.5019L36.9055 2.53564H36.9081ZM33.5782 10.5538L35.0711 6.79179L36.5459 10.5538H33.5782Z" fill="#21282F"/>
<path d="M0 13.8058L2.0414 11.366C3.34541 12.4061 4.80207 12.9546 6.33377 12.9546C7.31695 12.9546 7.84735 12.6157 7.84735 12.0464V12.0076C7.84735 11.4591 7.41268 11.1564 5.61449 10.7398C2.7969 10.0982 0.623545 9.30388 0.623545 6.57943V6.54062C0.623545 4.08267 2.5718 2.30518 5.74903 2.30518C7.99741 2.30518 9.75679 2.91061 11.1953 4.06456L9.36093 6.65446C8.15007 5.80324 6.82795 5.35045 5.65589 5.35045C4.76585 5.35045 4.33118 5.7282 4.33118 6.20168V6.24049C4.33118 6.84593 4.78396 7.10983 6.61837 7.52639C9.66365 8.18875 11.5524 9.17193 11.5524 11.648V11.6868C11.5524 14.3906 9.41527 15.9973 6.20181 15.9973C3.8577 15.9973 1.62484 15.2599 0 13.8032L0 13.8058Z" fill="#21282F"/>
<path d="M12.7036 2.53564H16.5794L19.736 7.66113L22.8925 2.53564H26.7683V15.7724H23.1202V8.17083L19.736 13.3532H19.6609L16.2948 8.20964V15.7724H12.7036V2.53564Z" fill="#21282F"/>
<path d="M43.4307 2.53564H49.6894C51.7127 2.53564 53.1124 3.06605 53.9999 3.9742C54.7761 4.72969 55.1719 5.75169 55.1719 7.0557V7.09451C55.1719 9.11779 54.0956 10.4606 52.4501 11.1592L55.6066 15.7724H51.3712L48.7062 11.7646H47.0995V15.7724H43.4307V2.53564ZM49.5186 8.89011C50.7657 8.89011 51.485 8.28468 51.485 7.3196V7.28079C51.485 6.24069 50.7295 5.71288 49.5005 5.71288H47.0995V8.89011H49.5186Z" fill="#21282F"/>
<path d="M59.93 5.75154H55.9585V2.53809H67.5678V5.75154H63.5963V15.7722H59.9275V5.75154H59.93Z" fill="#21282F"/>
<path d="M68.776 2.53564H72.4448V7.90434L77.0011 2.53564H81.3504L76.3388 8.22775L81.5186 15.7724H77.1124L73.7851 10.8565L72.4423 12.3519V15.775H68.7734V2.53564H68.776Z" fill="#21282F"/>
<path d="M82.3364 2.53564H92.9833V5.65596H85.9664V7.66113H92.3209V10.5538H85.9664V12.6521H93.0764V15.7724H82.3364V2.53564Z" fill="#21282F"/>
<path d="M94.6597 2.53564H105.4V5.65596H98.2897V7.66113H104.644V10.5538H98.2897V12.6521H105.4V15.7724H94.6597V2.53564Z" fill="#21282F"/>
<path d="M106.983 2.53564H112.655C116.003 2.53564 118.158 4.25621 118.158 7.18765V7.22387C118.158 10.3442 115.757 11.9897 112.466 11.9897H110.652V15.7724H106.983V2.53564ZM112.391 9.11521C113.695 9.11521 114.489 8.43474 114.489 7.39464V7.35583C114.489 6.21999 113.695 5.61715 112.373 5.61715H110.652V9.11521H112.391Z" fill="#21282F"/>
<path d="M119.335 2.53564H130.075V5.65596H122.965V7.66113H129.319V10.5538H122.965V12.6521H130.075V15.7724H119.335V2.53564Z" fill="#21282F"/>
<path d="M131.659 2.53564H137.917C139.941 2.53564 141.34 3.06605 142.228 3.9742C143.004 4.72969 143.4 5.75169 143.4 7.0557V7.09451C143.4 9.11779 142.324 10.4606 140.678 11.1592L143.835 15.7724H139.599L136.934 11.7646H135.328V15.7724H131.659V2.53564ZM137.747 8.89011C138.994 8.89011 139.713 8.28468 139.713 7.3196V7.28079C139.713 6.24069 138.958 5.71288 137.729 5.71288H135.328V8.89011H137.747Z" fill="#21282F"/>
<path d="M144.872 0C143.959 0 143.219 0.739974 143.219 1.6533C143.219 2.56662 143.959 3.30919 144.872 3.30919C145.785 3.30919 146.528 2.56921 146.528 1.6533C146.528 0.737387 145.788 0 144.872 0ZM144.872 2.92885C144.168 2.92885 143.597 2.35705 143.597 1.6533C143.597 0.949547 144.168 0.377749 144.872 0.377749C145.576 0.377749 146.148 0.949547 146.148 1.6533C146.148 2.35705 145.576 2.92885 144.872 2.92885Z" fill="#21282F"/>
<path d="M145.247 2.53043L144.872 1.96898H144.569V2.53043H144.184V0.778809H144.986C145.195 0.778809 145.356 0.830555 145.472 0.931461C145.588 1.03237 145.645 1.17467 145.645 1.35837V1.36354C145.645 1.50585 145.612 1.62228 145.542 1.71024C145.472 1.8008 145.382 1.86548 145.27 1.90688L145.7 2.53301H145.25L145.247 2.53043ZM145.255 1.37648C145.255 1.29369 145.229 1.23159 145.175 1.18761C145.12 1.14621 145.048 1.12551 144.952 1.12551H144.569V1.63004H144.96C145.056 1.63004 145.128 1.60675 145.18 1.56277C145.231 1.51878 145.257 1.45669 145.257 1.38165V1.37648H145.255Z" fill="#21282F"/>
</g>
<defs>
<clipPath id="clip0_7034_17584">
<rect width="146.525" height="16" fill="white"/>
</clipPath>
</defs>
</svg>
