<?xml version="1.0" standalone="no"?>
<!DOCTYPE svg PUBLIC "-//W3C//DTD SVG 20010904//EN"
 "http://www.w3.org/TR/2001/REC-SVG-20010904/DTD/svg10.dtd">
<svg version="1.0" xmlns="http://www.w3.org/2000/svg"
 width="257.000000pt" height="257.000000pt" viewBox="0 0 257.000000 257.000000"
 preserveAspectRatio="xMidYMid meet">
<metadata>
Created by potrace 1.14, written by Peter Selinger 2001-2017
</metadata>
<g transform="translate(0.000000,257.000000) scale(0.100000,-0.100000)"
fill="#000000" stroke="none">
<path d="M1217 2565 c-1 -2 -35 -5 -76 -9 -83 -7 -240 -44 -319 -75 -429 -169
-737 -553 -806 -1001 -14 -90 -15 -308 -2 -387 30 -184 101 -368 200 -514 63
-94 71 -104 167 -200 328 -329 803 -452 1253 -324 192 54 425 194 562 336 67
71 174 210 174 227 0 5 4 12 8 14 14 5 89 168 116 248 72 219 83 449 31 701
-20 100 -121 337 -172 404 -10 12 -25 33 -33 45 -53 81 -172 202 -270 276
-180 136 -414 230 -623 250 -63 6 -205 12 -210 9z"/>
</g>
</svg>
